<svg width="40" height="40" viewBox="0 0 40 40" fill="none" xmlns="http://www.w3.org/2000/svg">
<path fill-rule="evenodd" clip-rule="evenodd" d="M20.0433 3.33331C10.8616 3.33331 3.41992 10.775 3.41992 19.9566C3.41992 27.3 8.18159 33.5316 14.7883 35.7316C15.6199 35.8816 15.9199 35.37 15.9199 34.93C15.9199 34.535 15.9066 33.4883 15.9016 32.1033C11.2766 33.1066 10.2999 29.8733 10.2999 29.8733C9.54659 27.9533 8.45492 27.4416 8.45492 27.4416C6.94659 26.41 8.56992 26.4333 8.56992 26.4333C10.2399 26.55 11.1149 28.1466 11.1149 28.1466C12.5983 30.6866 15.0083 29.9533 15.9516 29.5283C16.1033 28.4533 16.5366 27.72 17.0099 27.305C13.3199 26.8866 9.43992 25.46 9.43992 19.0883C9.43992 17.2766 10.0883 15.79 11.1466 14.63C10.9783 14.2083 10.4033 12.5166 11.3116 10.23C11.3116 10.23 12.7066 9.78165 15.8816 11.9316C17.2376 11.5628 18.6363 11.3745 20.0416 11.3716C21.4469 11.3739 22.8457 11.5622 24.2016 11.9316C27.3783 9.77998 28.7716 10.23 28.7716 10.23C29.6799 12.5166 29.1099 14.2083 28.9366 14.63C30.0033 15.79 30.6433 17.275 30.6433 19.0883C30.6433 25.4766 26.7599 26.88 23.0566 27.2916C23.6483 27.805 24.1816 28.8183 24.1816 30.3683C24.1816 32.5916 24.1616 34.385 24.1616 34.93C24.1616 35.375 24.4583 35.8916 25.3066 35.7283C31.9099 33.525 36.6666 27.2983 36.6666 19.9566C36.6666 10.775 29.2249 3.33331 20.0433 3.33331Z" fill="black"/>
</svg>
