<svg width="40" height="40" viewBox="0 0 40 40" fill="none" xmlns="http://www.w3.org/2000/svg">
<path d="M19.9984 12.295C17.9545 12.295 15.9943 13.1069 14.549 14.5522C13.1037 15.9975 12.2917 17.9577 12.2917 20.0017C12.2917 22.0456 13.1037 24.0058 14.549 25.4511C15.9943 26.8964 17.9545 27.7083 19.9984 27.7083C22.0423 27.7083 24.0026 26.8964 25.4478 25.4511C26.8931 24.0058 27.7051 22.0456 27.7051 20.0017C27.7051 17.9577 26.8931 15.9975 25.4478 14.5522C24.0026 13.1069 22.0423 12.295 19.9984 12.295ZM19.9984 25.0066C18.6706 25.0066 17.3971 24.4792 16.4582 23.5402C15.5192 22.6013 14.9917 21.3278 14.9917 20C14.9917 18.6721 15.5192 17.3987 16.4582 16.4597C17.3971 15.5208 18.6706 14.9933 19.9984 14.9933C21.3263 14.9933 22.5997 15.5208 23.5387 16.4597C24.4776 17.3987 25.0051 18.6721 25.0051 20C25.0051 21.3278 24.4776 22.6013 23.5387 23.5402C22.5997 24.4792 21.3263 25.0066 19.9984 25.0066Z" fill="black"/>
<path d="M28.01 13.8084C29.0023 13.8084 29.8067 13.004 29.8067 12.0117C29.8067 11.0194 29.0023 10.215 28.01 10.215C27.0178 10.215 26.2134 11.0194 26.2134 12.0117C26.2134 13.004 27.0178 13.8084 28.01 13.8084Z" fill="black"/>
<path d="M34.2218 10.185C33.8359 9.18866 33.2463 8.28383 32.4906 7.52846C31.735 6.77309 30.8299 6.18381 29.8334 5.79836C28.6673 5.36062 27.4354 5.12393 26.1901 5.09836C24.5851 5.02836 24.0768 5.00836 20.0068 5.00836C15.9368 5.00836 15.4151 5.00836 13.8234 5.09836C12.5791 5.12262 11.348 5.35936 10.1834 5.79836C9.18665 6.18336 8.28136 6.77248 7.52564 7.52791C6.76992 8.28334 6.18047 9.1884 5.79508 10.185C5.35726 11.351 5.12111 12.5831 5.09675 13.8284C5.02508 15.4317 5.00342 15.94 5.00342 20.0117C5.00342 24.0817 5.00342 24.6 5.09675 26.195C5.12175 27.4417 5.35675 28.6717 5.79508 29.84C6.18155 30.8363 6.77158 31.741 7.52748 32.4963C8.28338 33.2516 9.18852 33.841 10.1851 34.2267C11.3475 34.682 12.579 34.9357 13.8268 34.9767C15.4318 35.0467 15.9401 35.0684 20.0101 35.0684C24.0801 35.0684 24.6018 35.0684 26.1934 34.9767C27.4386 34.9514 28.6705 34.7153 29.8368 34.2784C30.833 33.892 31.7378 33.3022 32.4934 32.5466C33.2489 31.7911 33.8387 30.8863 34.2251 29.89C34.6634 28.7234 34.8984 27.4934 34.9234 26.2467C34.9951 24.6434 35.0168 24.135 35.0168 20.0634C35.0168 15.9917 35.0168 15.475 34.9234 13.88C34.904 12.6171 34.6666 11.3671 34.2218 10.185ZM32.1918 26.0717C32.181 27.0322 32.0057 27.9838 31.6734 28.885C31.4231 29.5331 31.04 30.1217 30.5485 30.6128C30.0571 31.104 29.4683 31.4868 28.8201 31.7367C27.9288 32.0674 26.9874 32.2428 26.0368 32.255C24.4534 32.3284 24.0068 32.3467 19.9468 32.3467C15.8834 32.3467 15.4684 32.3467 13.8551 32.255C12.905 32.2434 11.964 32.0681 11.0734 31.7367C10.4229 31.4883 9.83175 31.1062 9.33823 30.615C8.84472 30.1237 8.45981 29.5344 8.20842 28.885C7.88083 27.9934 7.7056 27.0531 7.69008 26.1034C7.61842 24.52 7.60175 24.0734 7.60175 20.0134C7.60175 15.9517 7.60175 15.5367 7.69008 13.9217C7.70086 12.9617 7.87618 12.0107 8.20842 11.11C8.71675 9.79503 9.75842 8.76003 11.0734 8.25669C11.9644 7.92693 12.9051 7.75163 13.8551 7.73836C15.4401 7.6667 15.8851 7.64669 19.9468 7.64669C24.0084 7.64669 24.4251 7.6467 26.0368 7.73836C26.9874 7.7498 27.929 7.92515 28.8201 8.25669C29.4683 8.50715 30.057 8.89037 30.5484 9.38175C31.0397 9.87313 31.423 10.4618 31.6734 11.11C32.001 12.0016 32.1762 12.942 32.1918 13.8917C32.2634 15.4767 32.2818 15.9217 32.2818 19.9834C32.2818 24.0434 32.2818 24.48 32.2101 26.0734H32.1918V26.0717Z" fill="black"/>
</svg>
